# xmcd
#
# Track frame offsets:
#	150
#	17120
#	29397
#	42767
#	53222
#	67042
#	80712
#	94140
#	108185
#	125440
#	136090
#	149432
#	169205
#	181235
#	193517
#	205752
#	215877
#	228782
#	238220
#	252092
#	265342
#
# Disc length: 3691 seconds
#
# Revision: 1
# Processed by: cddbd v1.5.2PL0 Copyright (c) Steve Scherf et al.
# Submitted via: audiograbber 1.83.01
#
DISCID=310e6915
DTITLE=Variuos - I Love Country - Country Classics
DYEAR=1990
DGENRE=Country
TTITLE0=Johnny Cash - A Boy Named Sue
TTITLE1=Charlie Rich - The Most Beautiful Girl In The World
TTITLE2=Lynn Anderson - Rose Garden
TTITLE3=David Houston - Baby, Baby (I Know You're A Lady)
TTITLE4=Barbara Fairchild - Teddy Bear Song
TTITLE5=Jimmy Dean - Big Bad John
TTITLE6=David Houston - Almost Persuaded
TTITLE7=Goerge Jones - The Grand Tour
TTITLE8=Ray Price - The Good Times
TTITLE9=Willie Nelson - Blue Eyes Crying In The Rain
TTITLE10=Tammy Wynette - D.I.V.O.R.C.E.
TTITLE11=Marty Robbins - El Paso
TTITLE12=Larry Gatlin and Gatlin Brothers Band - All The Gold In California
TTITLE13=Charlie Rich - Rollin' With The Flow
TTITLE14=George Jones - The Door
TTITLE15=Lynn Anderson - What A Man My Man Is
TTITLE16=Johnny Horton - North To Alaska
TTITLE17=Willie Nelson - If You've Got The Money, I've Got The Time
TTITLE18=Lefty Frizzell - Saginaw Michigan
TTITLE19=Charlie Rich - Behind Closed Doors
TTITLE20=Johnny Cash - A Thing Called Love
EXTD=CBS Records Inc., 1990 
EXTT0=
EXTT1=
EXTT2=
EXTT3=
EXTT4=
EXTT5=
EXTT6=
EXTT7=
EXTT8=
EXTT9=
EXTT10=
EXTT11=
EXTT12=
EXTT13=
EXTT14=
EXTT15=
EXTT16=
EXTT17=
EXTT18=
EXTT19=
EXTT20=
PLAYORDER=
